HIERARCHY
ROOT hip
{
  OFFSET 0 0 0
  CHANNELS 6 Xposition Yposition Zposition Zrotation Yrotation Xrotation
  JOINT abdomen
  {
    OFFSET 0 20.6881 -0.73152
    CHANNELS 3 Zrotation Xrotation Yrotation
    JOINT chest
    {
      OFFSET 0 11.7043 -0.48768
      CHANNELS 3 Zrotation Xrotation Yrotation
      JOINT neck
      {
        OFFSET 0 22.1894 -2.19456
        CHANNELS 3 Zrotation Xrotation Yrotation
        JOINT head
        {
          OFFSET -0.24384 7.07133 1.2192
          CHANNELS 3 Zrotation Xrotation Yrotation
          JOINT leftEye
          {
            OFFSET 4.14528 8.04674 8.04672
            CHANNELS 3 Zrotation Xrotation Yrotation
            End Site
            {
              OFFSET 1 0 0
            }
          }
          JOINT rightEye
          {
            OFFSET -3.6576 8.04674 8.04672
            CHANNELS 3 Zrotation Xrotation Yrotation
            End Site
            {
              OFFSET 1 0 0
            }
          }
        }
      }
      JOINT rCollar
      {
        OFFSET -2.68224 19.2634 -4.8768
        CHANNELS 3 Zrotation Xrotation Yrotation
        JOINT rShldr
        {
          OFFSET -8.77824 -1.95073 1.46304
          CHANNELS 3 Zrotation Xrotation Yrotation
          JOINT rForeArm
          {
            OFFSET -28.1742 -1.7115 0.48768
            CHANNELS 3 Zrotation Xrotation Yrotation
            JOINT rHand
            {
              OFFSET -22.5879 0.773209 7.07136
              CHANNELS 3 Zrotation Xrotation Yrotation
              JOINT rThumb1
              {
                OFFSET -1.2192 -0.487915 3.41376
                CHANNELS 3 Zrotation Xrotation Yrotation
                JOINT rThumb2
                {
                  OFFSET -3.37035 -0.52449 3.41376
                  CHANNELS 3 Zrotation Xrotation Yrotation
                  End Site
                  {
                    OFFSET -1.78271 -1.18214 1.43049
                  }
                }
              }
              JOINT rIndex1
              {
                OFFSET -7.75947 0.938293 5.60832
                CHANNELS 3 Zrotation Xrotation Yrotation
                JOINT rIndex2
                {
                  OFFSET -2.54057 -0.884171 1.56538
                  CHANNELS 3 Zrotation Xrotation Yrotation
                  End Site
                  {
                    OFFSET -1.62519 -0.234802 1.16502
                  }
                }
              }
              JOINT rMid1
              {
                OFFSET -8.24714 1.18213 3.41376
                CHANNELS 3 Zrotation Xrotation Yrotation
                JOINT rMid2
                {
                  OFFSET -3.10165 -0.590103 1.0647
                  CHANNELS 3 Zrotation Xrotation Yrotation
                  End Site
                  {
                    OFFSET -2.48547 -0.328903 0.83742
                  }
                }
              }
              JOINT rRing1
              {
                OFFSET -8.82822 0.546677 1.51678
                CHANNELS 3 Zrotation Xrotation Yrotation
                JOINT rRing2
                {
                  OFFSET -2.60934 -0.819778 -0.0198488
                  CHANNELS 3 Zrotation Xrotation Yrotation
                  End Site
                  {
                    OFFSET -2.33842 -0.294052 0.168128
                  }
                }
              }
              JOINT rPinky1
              {
                OFFSET -8.27202 -0.0477905 -0.4584
                CHANNELS 3 Zrotation Xrotation Yrotation
                JOINT rPinky2
                {
                  OFFSET -1.82734 -0.647385 -0.700984
                  CHANNELS 3 Zrotation Xrotation Yrotation
                  End Site
                  {
                    OFFSET -1.69225 -0.51767 -0.607171
                  }
                }
              }
            }
          }
        }
      }
      JOINT lCollar
      {
        OFFSET 2.68224 19.2634 -4.8768
        CHANNELS 3 Zrotation Xrotation Yrotation
        JOINT lShldr
        {
          OFFSET 8.77824 -1.95073 1.46304
          CHANNELS 3 Zrotation Xrotation Yrotation
          JOINT lForeArm
          {
            OFFSET 28.1742 -1.7115 0.48768
            CHANNELS 3 Zrotation Xrotation Yrotation
            JOINT lHand
            {
              OFFSET 22.5879 0.773209 7.07136
              CHANNELS 3 Zrotation Xrotation Yrotation
              JOINT lThumb1
              {
                OFFSET 1.2192 -0.487915 3.41376
                CHANNELS 3 Zrotation Xrotation Yrotation
                JOINT lThumb2
                {
                  OFFSET 3.37035 -0.52449 3.41376
                  CHANNELS 3 Zrotation Xrotation Yrotation
                  End Site
                  {
                    OFFSET 1.78271 -1.18214 1.43049
                  }
                }
              }
              JOINT lIndex1
              {
                OFFSET 7.75947 0.938293 5.60832
                CHANNELS 3 Zrotation Xrotation Yrotation
                JOINT lIndex2
                {
                  OFFSET 2.54057 -0.884171 1.56538
                  CHANNELS 3 Zrotation Xrotation Yrotation
                  End Site
                  {
                    OFFSET 1.62519 -0.234802 1.16502
                  }
                }
              }
              JOINT lMid1
              {
                OFFSET 8.24714 1.18213 3.41376
                CHANNELS 3 Zrotation Xrotation Yrotation
                JOINT lMid2
                {
                  OFFSET 3.10165 -0.590103 1.0647
                  CHANNELS 3 Zrotation Xrotation Yrotation
                  End Site
                  {
                    OFFSET 2.48547 -0.328903 0.83742
                  }
                }
              }
              JOINT lRing1
              {
                OFFSET 8.82822 0.546677 1.51678
                CHANNELS 3 Zrotation Xrotation Yrotation
                JOINT lRing2
                {
                  OFFSET 2.60934 -0.819778 -0.0198488
                  CHANNELS 3 Zrotation Xrotation Yrotation
                  End Site
                  {
                    OFFSET 2.33842 -0.294052 0.168128
                  }
                }
              }
              JOINT lPinky1
              {
                OFFSET 8.27202 -0.0477905 -0.4584
                CHANNELS 3 Zrotation Xrotation Yrotation
                JOINT lPinky2
                {
                  OFFSET 1.82734 -0.647385 -0.700984
                  CHANNELS 3 Zrotation Xrotation Yrotation
                  End Site
                  {
                    OFFSET 1.69225 -0.51767 -0.607171
                  }
                }
              }
            }
          }
        }
      }
    }
  }
  JOINT rButtock
  {
    OFFSET -8.77824 4.35084 1.2192
    CHANNELS 3 Zrotation Xrotation Yrotation
    JOINT rThigh
    {
      OFFSET 0 -1.70687 -2.19456
      CHANNELS 3 Zrotation Xrotation Yrotation
      JOINT rShin
      {
        OFFSET 0 -36.8199 0.73152
        CHANNELS 3 Zrotation Xrotation Yrotation
        JOINT rFoot
        {
          OFFSET 0.73152 -45.1104 -5.12064
          CHANNELS 3 Zrotation Xrotation Yrotation
          End Site
          {
            OFFSET -1.1221 -3.69964 12.103
          }
        }
      }
    }
  }
  JOINT lButtock
  {
    OFFSET 8.77824 4.35084 1.2192
    CHANNELS 3 Zrotation Xrotation Yrotation
    JOINT lThigh
    {
      OFFSET 0 -1.70687 -2.19456
      CHANNELS 3 Zrotation Xrotation Yrotation
      JOINT lShin
      {
        OFFSET 0 -36.8199 0.73152
        CHANNELS 3 Zrotation Xrotation Yrotation
        JOINT lFoot
        {
          OFFSET -0.73152 -45.1104 -5.12064
          CHANNELS 3 Zrotation Xrotation Yrotation
          End Site
          {
            OFFSET 1.1221 -3.69964 12.103
          }
        }
      }
    }
  }
}
MOTION
Frames:	4
Frame Time:	0.03333
0.01298204530030489 -0.26320523023605347 0.06077742576599121 -18.738289028406143 -2.8339315205812454 1.9008003920316696 -1.4777670800685883 13.032212555408478 3.3321089297533035 2.1086798049509525 -9.217381775379181 1.00577088072896 -4.165605045855045 13.70046615600586 -3.6040832474827766 8.531317636370659 -22.598659694194794 -5.326394364237785 -0.06728153675794601 0.561588853597641 -0.21385151892900467 -0.1540890522301197 0.23926310241222382 0.09235237492248416 -0.26792535558342934 -0.252123037353158 -0.0858630845323205 41.93672686815262 25.673208832740784 10.37166103720665 -22.662351429462433 -26.052929162979126 58.01722168922424 -3.4770384058356285 -9.5268664509058 -3.3560657501220703 0.11591799091547728 -0.09942211210727692 1.144774854183197 0.5605199094861746 0.22379434201866388 -0.2708330377936363 0.1651659468188882 0.09171097073704004 0.442567840218544 7.6734888553619385 4.963533729314804 0.5491434875875711 -0.042151008965447545 0.03220197279006243 0.396439041942358 2.722923941910267 1.377618508413434 -0.052689146250486374 -0.8754673227667809 0.3913301043212414 -0.220201313495636 9.699427708983421 0.6096856389194727 -0.2280544862151146 -0.38259565830230713 0.43235834687948227 -0.15348765067756176 2.0676643028855324 -0.8110819011926651 -0.9577030129730701 -0.330117903649807 0.41547300294041634 -0.02874733996577561 -49.36457633972168 27.144024968147278 -24.247668385505676 20.727311968803406 -22.30625867843628 -54.13587212562561 4.266702868044376 -11.395041793584824 3.0263005569577217 -0.16067530028522015 -0.061125531792640686 -0.04584356211125851 0.305195152759552 -0.2857506461441517 -0.8262243121862411 -0.6860301084816456 0.4024841543287039 0.16258813440799713 -7.589685246348381 5.3452737629413605 -0.3896422404795885 -0.1061817817389965 0.2087739296257496 -0.3496293816715479 -2.948635518550873 0.7524435315281153 -0.3708158992230892 -0.6891476735472679 0.18268789630383253 0.1201583119109273 -10.246773362159729 1.1783199850469828 -0.25561644695699215 -0.36223174072802067 -0.11364783626049757 0.1358542637899518 -2.556945327669382 -0.5717766378074884 0.3335549449548125 0.04179315408691764 -0.11830960982479155 -0.5903957784175873 -30.10878324508667 -30.158082246780396 -24.266706705093384 -19.26574409008026 55.09771764278412 21.29747986793518 -4.353603757917881 -10.001041442155838 -8.520319238305092 -0.5776100233197212 -0.471319193020463 0.2268402837216854 33.822274804115295 -30.477463603019714 27.116942703723907 20.8651801943779 56.63721442222595 -18.363900929689407 5.188884884119034 -10.234847590327263 11.882494390010834
0.007253737188875675 -0.8473807573318481 0.17216547578573227 -22.55342960357666 -1.265670396387577 5.038899779319763 -2.5323332101106644 14.463845640420914 3.8354630023241043 2.810011077672243 -9.770244061946869 1.0768209211528301 -4.878607615828514 15.322805643081665 -3.7934964895248413 8.65216925740242 -24.904275834560394 -5.525686517357826 -0.26655441150069237 -0.17672739923000336 -0.03774966113269329 -0.12188515160232782 -0.17595207318663597 -0.010085200192406774 0.03652598708868027 0.09970441460609436 -0.2713631931692362 50.569413900375366 30.676515698432922 12.906198352575302 -23.860657811164856 -30.124914050102234 67.17807054519653 -4.938950277864933 -14.24301266670227 -4.5507099106907845 -0.007787542417645454 0.10006479453295469 0.04755556583404541 0.3954443195834756 0.2569305198267102 0.026383716613054276 0.03154671750962734 -0.18676414154469967 -0.11660417541861534 7.77191586792469 5.421428382396698 0.5066753178834915 -0.061452038353309035 0.22333857603371143 0.20733081735670567 2.945449724793434 1.0829759202897549 0.20232933573424816 0.045656561851501465 -0.0049573928117752075 0.08478295058012009 10.169507637619972 0.6066514737904072 0.23607144132256508 0.10933086276054382 0.07980560883879662 0.04818689078092575 2.229655645787716 -0.731586255133152 -0.3599138930439949 -0.05313137546181679 -0.03540884703397751 -0.0425810634624213 -59.713085889816284 31.960167288780212 -24.758312702178955 22.62182056903839 -27.11784929037094 -61.99658453464508 5.634249597787857 -10.999086052179337 3.265172056853771 0.11044582352042198 0.03282724181190133 -0.06156887160614133 -0.04148438572883606 0.1815434731543064 -0.019634440541267395 -0.14315016567707062 0.20497567020356655 -0.003565410152077675 -7.611701488494873 5.618109405040741 -0.3854625625535846 -0.017049377784132957 -0.026948824524879456 0.13060279190540314 -2.9489540308713913 1.0269611701369286 -0.09527022019028664 0.5090557783842087 -0.06277978420257568 -0.12232423759996891 -10.304271206259727 0.7279860600829124 -0.0008343346416950226 -0.031018154695630074 0.007246281020343304 0.015567373484373093 -2.2765715047717094 -0.8031895849853754 0.2385128801688552 -0.04468849394470453 -0.20825999323278666 -0.06582660600543022 -34.87657070159912 -34.7198948264122 -29.973224401474 -22.942170202732086 63.414480686187744 22.554357647895813 -4.230896718800068 -10.355304926633835 -9.982257261872292 -0.05875999107956886 -0.1699352078139782 0.09747822303324938 41.16794943809509 -33.016785979270935 34.84195679426193 23.19966495037079 64.28952991962433 -23.597339987754822 5.131279416382313 -10.911737233400345 13.918455988168716
-0.05386385228484869 -0.5967959761619568 -0.1312832310795784 -207.07001209259033 26.22701793909073 -193.35027694702148 -6.059141680598259 17.440736889839172 5.938541516661644 2.130449954420328 -10.111150816082954 0.26620195247232914 -6.142800450325012 15.855044424533844 -5.825588330626488 8.76698523759842 -26.90342277288437 -8.134943470358849 0.23988554254174232 0.8017791621387005 0.443960577249527 0.02696278039366007 -0.22500112652778625 -0.063627875642851 0.2735196053981781 0.5307602137327194 0.5496200826019049 35.788240134716034 28.955132961273193 26.822618544101715 -24.918880462646484 -28.559410572052002 64.78057265281677 -1.500735841691494 8.271782398223877 -1.7351595684885979 0.7316106464713812 0.15068884938955307 -0.43791621923446655 1.0148520022630692 0.9476398676633835 -0.5190670397132635 -0.2278925059363246 0.5323986662551761 -0.7649415358901024 8.64093616604805 5.305016152560711 0.27492663357406855 -0.5772104579955339 -0.21828365977853537 0.4124141950160265 3.143472522497177 1.58279400318861 0.08265436626970768 1.3329720497131348 -0.2705552615225315 -0.004845578223466873 10.583908930420876 -0.40992296766489744 0.47779932618141174 0.3735188953578472 0.10840969160199165 -0.6282086810097098 2.111481372267008 -0.5631592869758606 -1.2975229695439339 -0.8103520050644875 0.017411978915333748 0.01814727089367807 -61.11226558685303 38.724451661109924 -15.582301318645477 24.86302077770233 -33.904288709163666 -74.02689278125763 7.935106158256531 -35.035912692546844 15.768289715051651 0.12023630551993847 0.683589382097125 -0.8406844362616539 -0.256025567650795 0.03669949248433113 -1.0596698708832264 0.01377113163471222 -0.1078491099178791 0.1053627859801054 -7.457960620522499 5.754889994859695 -0.3530365414917469 0.3831350337713957 -0.6884938850998878 1.0765210166573524 -3.3108849450945854 1.097819684073329 -0.21414706483483315 0.04588857293128967 0.6006546411663294 0.5626643355935812 -10.74988268315792 1.4105992019176483 -0.4303524736315012 -0.2040524035692215 -0.6659058295190334 -0.38183328229933977 -1.5752120688557625 -1.3801714684814215 0.3403846872970462 -0.5108814826235175 -0.2519860351458192 -0.2848968654870987 -43.01039636135101 -41.59250020980835 -38.941179513931274 -31.52261584997177 65.33544659614563 33.70594471693039 -2.5848397985100746 -11.603584885597229 -5.48651285469532 -0.13362044468522072 0.4798213765025139 0.13249944895505905 42.22078889608383 -32.6913321018219 34.96554225683212 39.255424439907074 65.30076026916504 -42.08718001842499 6.449619680643082 -15.839635133743286 15.337623506784439
-0.10324193444103003 -0.1743198186159134 -0.36554937809705734 -330.82576274871826 61.50525212287903 -348.221755027771 -15.700376182794571 19.838395714759827 8.927692472934723 0.8461330085992813 -12.291729748249054 0.5372868245467544 -5.345345176756382 16.162515431642532 -5.309514552354813 6.217078194022179 -27.266167402267456 -6.422988697886467 -0.7940252311527729 1.498328559100628 1.0609050281345844 0.08007454220205545 -0.9266125224530697 0.25337093509733677 0.6016037240624428 0.4510330595076084 0.2922933083027601 17.52224788069725 23.405438661575317 45.50165355205536 -29.337320923805237 -33.05205971002579 78.02459120750427 -2.831830345094204 20.476833879947662 0.34165735356509686 1.4634921960532665 0.061140283942222595 -0.5968334153294563 1.875161323696375 0.1060545863583684 -1.1090790946036577 -0.641199960373342 1.025019083172083 -2.042829729616642 9.140512347221375 5.703855603933334 0.4983163811266422 -0.2757839346304536 -0.6896090554073453 0.6057050731033087 3.088238462805748 1.7614111863076687 -0.018803374841809273 1.3453105464577675 -0.2595999464392662 0.4324896074831486 11.36143907904625 -0.612930147908628 0.6944180466234684 0.5391080863773823 0.8160791080445051 -0.8575960993766785 2.227863259613514 -0.08212823420763016 -1.4652428403496742 -0.6923201400786638 0.060083745047450066 0.37061552982777357 -61.006468534469604 39.9365097284317 -11.31706327199936 26.027327477931976 -41.57522410154343 -85.57919919490814 14.397684931755066 -58.963521122932434 24.047961831092834 0.31116885133087635 0.6372327636927366 0.2696860581636429 -0.6749778985977173 -0.6435083784162998 -0.1625368371605873 1.4977317675948143 0.1230723224580288 0.686613991856575 -7.5533755123615265 5.407598912715912 -0.1518959691748023 0.8368635457009077 -1.2707746401429176 1.5282144024968147 -3.8256803154945374 -0.15820483909919858 0.5047283694148064 0.6696590781211853 1.296357549726963 -0.24441017769277096 -10.682229995727539 1.4809029176831245 -1.494637168943882 0.27921561151742935 -0.5183630436658859 -0.3272758098319173 -1.521882377564907 -1.259367372840643 0.5467501608654857 -0.5328849842771888 -1.109015392139554 -0.2654252015054226 -54.496082067489624 -47.779637575149536 -49.388163685798645 -29.58345651626587 75.55307507514954 31.890268921852112 -2.845890149474144 -9.96899038553238 -10.851649045944214 1.2524806335568428 1.560257412493229 -0.17718144692480564 46.13439202308655 -35.68600237369537 39.15147811174393 44.19741868972778 73.52060437202454 -53.621145486831665 5.452107489109039 -20.41415199637413 13.74346062541008
